<svg width="1249" height="280" viewBox="0 0 1249 280" fill="none" xmlns="http://www.w3.org/2000/svg" style="--mobile-stroke-width: 3px;">
   <path stroke-width="1.5px" d="M888.868 6.8645C871.218 6.24846 853.526 6.75251 835.568 6.75251V278.721C854.465 278.721 872.508 279.603 890.41 278.567C960.21 274.52 1015.18 225.685 1021.44 157.319C1025.47 113.482 1012.7 75.1891 980.116 44.485C954.546 20.4174 923.873 8.09658 888.868 6.8645ZM962.228 187.421C945.77 217.985 917.901 230.754 883.036 231.734V53.5016C913.373 54.4957 939.069 64.7024 956.579 89.5541C978.434 120.58 980.116 154.224 962.242 187.421" fill="currentColor"></path>
   <path stroke-width="1.5px" d="M134.105 35.72C94.1367 3.96584 47.2857 4.8339 0 6.86403V278.608C19.0376 278.608 37.5566 279.546 55.9353 278.412C90.9965 276.256 122.034 263.571 147.1 238.608C177.016 208.814 188.988 172.383 185.498 130.562C182.217 91.4297 164.778 60.0816 134.105 35.706M47.0473 231.019V54.0752C90.2535 52.3671 136.894 84.9473 137.665 141.455C138.38 193.119 97.4732 234.309 47.0473 231.033" fill="currentColor"></path>
   <path stroke-width="1.5px" d="M774.852 84.2898C760.244 4.49841 670.397 -22.3414 612.849 19.7734C583.452 41.2929 571.101 71.4369 571.045 107.125C570.975 162.149 571.017 217.173 571.045 272.196C571.045 274.325 571.382 276.467 571.522 278.469H617.672V268.948C617.672 216.417 617.616 163.885 617.742 111.354C617.742 105.655 618.106 99.8448 619.298 94.3144C626.91 58.9481 660.261 40.0048 693.794 51.7796C714.43 59.0321 729.865 80.9715 730.061 104.535C730.356 141.386 730.187 178.236 730.201 215.073C730.201 235.976 730.201 256.879 730.201 278.595H776.562C776.73 276.215 776.968 274.283 776.968 272.322C776.968 217.789 777.067 163.283 776.884 108.749C776.856 100.587 776.338 92.2983 774.866 84.2758" fill="currentColor"></path>
   <path stroke-width="1.5px" d="M512.798 6.86401H467.055V278.412H512.798V6.86401Z" fill="currentColor"></path>
   <path stroke-width="1.5px" d="M235.112 97.1145V188.471C235.112 241.1 271.911 277.853 324.608 277.853H413.095V233.064H324.608C314.136 233.064 279.958 229.843 279.958 188.471V165.831H389.754V119.768H279.958V97.1145C279.958 72.5289 299.991 52.5215 324.608 52.5215H413.095V7.74654H324.608C275.262 7.74654 235.112 47.8312 235.112 97.1145Z" fill="currentColor"></path>
   <path stroke-width="1.5px" d="M1159.7 52.5355H1248.19V7.74654H1159.7C1110.35 7.74654 1070.2 47.8452 1070.2 97.1285V188.485C1070.2 241.114 1107 277.853 1159.7 277.853H1248.19V233.078H1159.7C1149.23 233.078 1115.05 229.843 1115.05 188.485V165.831H1224.84V119.768H1115.05V97.1285C1115.05 72.5429 1135.08 52.5355 1159.7 52.5355Z" fill="currentColor"></path>
</svg>