<svg width="232" height="227" viewBox="0 0 232 227" fill="none" xmlns="http://www.w3.org/2000/svg">
<path d="M78.1241 69.7964L72.9935 99.7118C72.7237 101.116 72.8568 102.569 73.3772 103.9C73.8977 105.232 74.7841 106.387 75.9332 107.232C77.0633 108.082 78.4075 108.598 79.814 108.721C81.2205 108.844 82.6332 108.57 83.8926 107.929L111.626 94.0017L137.917 107.762C139.172 108.441 140.592 108.753 142.015 108.66C143.438 108.567 144.806 108.074 145.963 107.237C147.12 106.401 148.019 105.254 148.558 103.928C149.097 102.602 149.254 101.151 149.01 99.7397L143.879 69.9356L165.456 48.7385C166.47 47.749 167.188 46.4941 167.529 45.1157C167.869 43.7374 167.819 42.2908 167.383 40.9398C166.947 39.5888 166.143 38.3873 165.062 37.4716C163.982 36.5559 162.667 35.9624 161.268 35.7584L131.178 31.3575L117.755 4.17169C117.119 2.90558 116.143 1.84337 114.937 1.10505C113.731 0.366735 112.344 -0.0182633 110.932 -0.00644995C109.525 -0.0130633 108.144 0.374388 106.944 1.11242C105.743 1.85045 104.772 2.90984 104.138 4.17169V4.17169L90.6872 31.3575L60.5968 35.7027C59.1837 35.8943 57.8533 36.4828 56.7585 37.4004C55.6638 38.3181 54.8493 39.5275 54.4089 40.8896C53.9684 42.2517 53.9198 43.711 54.2688 45.0996C54.6178 46.4882 55.3501 47.7496 56.3814 48.7385L78.1241 69.7964ZM94.0152 39.3238C94.6679 39.2142 95.2852 38.9498 95.8157 38.5526C96.3463 38.1553 96.7749 37.6367 97.0658 37.0397L110.932 9.18546L124.799 37.0397C125.098 37.6471 125.539 38.1724 126.085 38.5703C126.631 38.9682 127.265 39.2268 127.933 39.3238L158.661 43.7805L136.475 65.3397C135.986 65.8108 135.62 66.3945 135.407 67.0401C135.195 67.6857 135.142 68.3737 135.254 69.0443L140.496 99.5447L113.622 85.4783C113.035 85.1753 112.383 85.0172 111.723 85.0172C111.062 85.0172 110.411 85.1753 109.823 85.4783L81.5353 99.7397L86.8046 69.1C86.897 68.4313 86.8267 67.75 86.5997 67.1145C86.3727 66.479 85.9958 65.9083 85.5011 65.4511L63.3147 43.8919L94.0152 39.3238Z" fill="black"/>
<path d="M227.411 123.945C226.018 122.329 224.321 121.005 222.418 120.049C220.514 119.093 218.441 118.524 216.318 118.374C214.195 118.228 212.065 118.512 210.054 119.211C208.043 119.91 206.193 121.008 204.615 122.441L166.204 157.092C166.104 156.322 165.956 155.559 165.761 154.808C165.115 152.394 163.958 150.149 162.369 148.226C160.78 146.303 158.796 144.748 156.553 143.666C149.426 140.658 139.525 142.051 129.957 143.443C124.361 144.544 118.645 144.9 112.957 144.502C110.425 143.864 107.977 142.929 105.663 141.716C98.397 138.457 88.4408 134.001 69.9151 138.095C60.3505 140.576 51.5648 145.444 44.3729 152.245V142.051C44.3729 140.942 43.9347 139.88 43.1545 139.096C42.3744 138.313 41.3163 137.872 40.213 137.872H4.15996C3.05667 137.872 1.99857 138.313 1.21842 139.096C0.43828 139.88 0 140.942 0 142.051V222.828C0 223.936 0.43828 224.999 1.21842 225.782C1.99857 226.566 3.05667 227.006 4.15996 227.006H40.213C41.3163 227.006 42.3744 226.566 43.1545 225.782C43.9347 224.999 44.3729 223.936 44.3729 222.828V217.034C49.9196 218.343 75.1012 224.221 93.7101 224.221C113.123 224.221 136.863 219.764 151.478 213.385C178.407 201.659 222.752 151.047 226.357 146.953C229.481 144.011 231.339 139.961 231.536 135.664C231.732 131.367 230.253 127.163 227.411 123.945V123.945ZM36.053 218.65H8.31993V146.229H36.053V218.65ZM220.589 140.908L220.201 141.298C219.729 141.828 173.914 194.528 148.095 205.753C134.505 211.686 112.097 215.864 93.7101 215.864C74.2969 215.864 45.6487 208.734 45.3713 208.678C45.0398 208.637 44.7045 208.637 44.3729 208.678V164.111C47.3958 160.629 58.0731 149.32 71.7178 146.312C87.5811 142.83 95.4018 146.312 102.224 149.404C105.167 150.86 108.279 151.945 111.487 152.635C118.037 153.256 124.641 152.918 131.094 151.632C139.165 150.518 148.317 149.237 153.281 151.326C154.348 151.942 155.281 152.768 156.024 153.753C156.768 154.739 157.306 155.865 157.607 157.064C158.01 158.708 158.016 160.425 157.626 162.072C157.235 163.72 156.458 165.249 155.361 166.534C149.038 175.058 110.572 187.815 94.7917 186.562C93.6884 186.477 92.5967 186.835 91.7567 187.559C90.9168 188.282 90.3974 189.311 90.3128 190.419C90.2282 191.528 90.5854 192.624 91.3057 193.468C92.026 194.311 93.0505 194.833 94.1538 194.918C95.0136 194.918 95.9565 194.918 96.9271 194.918C114.149 194.918 147.041 184.723 159.077 174.529L159.382 174.361L209.967 128.68C211.487 127.321 213.481 126.62 215.514 126.731C216.578 126.795 217.617 127.076 218.57 127.554C219.524 128.033 220.371 128.7 221.06 129.516C222.485 131.098 223.233 133.178 223.145 135.309C223.057 137.44 222.139 139.451 220.589 140.908V140.908Z" fill="black"/>
</svg>
