<svg width="210" height="227" viewBox="0 0 210 227" fill="none" xmlns="http://www.w3.org/2000/svg">
<path d="M207.978 55.2573L106.867 0.459247C106.304 0.1577 105.676 0 105.039 0C104.401 0 103.774 0.1577 103.211 0.459247L2.1 55.2573C1.47175 55.5849 0.944221 56.0788 0.574193 56.6855C0.204127 57.2926 0.0056 57.9897 0 58.7017V168.298C0.00186667 169.006 0.194562 169.7 0.557512 170.307C0.9205 170.913 1.44013 171.41 2.06111 171.742L103.172 226.54C103.735 226.842 104.363 227 105 227C105.637 227 106.265 226.842 106.828 226.54L207.939 171.742C208.56 171.41 209.079 170.913 209.442 170.307C209.806 169.7 209.998 169.006 210 168.298V58.7017C210.002 57.9976 209.815 57.3059 209.459 56.7C209.103 56.0937 208.591 55.5955 207.978 55.2573ZM105 8.36583L197.944 58.7017L170.722 73.4581L81.0055 21.3608L105 8.36583ZM12.0556 58.7017L41.3389 43.0451L131.017 94.9468L105 109.038L12.0556 58.7017ZM72.9556 25.7055L162.672 77.8028L139.067 90.602L49.3889 38.4656L72.9556 25.7055ZM144.239 96.669L165.394 85.2397V114.439L157.228 106.298C156.774 105.844 156.216 105.51 155.603 105.325C154.991 105.14 154.342 105.111 153.715 105.238C153.088 105.366 152.502 105.648 152.01 106.057C151.517 106.468 151.132 106.994 150.889 107.589L144.239 123.716V96.669ZM7.77778 65.2384L101.111 115.848V216.559L7.77778 165.949V65.2384ZM108.889 216.559V115.848L136.461 100.896V143.404C136.506 144.28 136.843 145.116 137.416 145.777C137.99 146.438 138.768 146.886 139.624 147.048C140.481 147.211 141.368 147.079 142.141 146.673C142.914 146.268 143.53 145.613 143.889 144.813L155.789 115.887L166.444 126.534C166.988 127.086 167.683 127.462 168.441 127.615C169.198 127.768 169.983 127.691 170.697 127.393C171.41 127.094 172.019 126.59 172.446 125.941C172.873 125.294 173.099 124.532 173.094 123.755V81.0124L202.183 65.3558V165.949L108.889 216.559Z" fill="black"/>
</svg>
