<svg width="227" height="227" viewBox="0 0 227 227" fill="none" xmlns="http://www.w3.org/2000/svg">
<path d="M185.493 122.145C183.355 120.007 180.455 118.806 177.431 118.806C174.407 118.806 171.507 120.007 169.368 122.145L158.614 132.899C158.592 132.899 158.584 132.948 158.565 132.967L153.243 138.263C151.484 140.033 149.392 141.438 147.088 142.397C144.784 143.355 142.313 143.849 139.817 143.849C137.322 143.849 134.85 143.355 132.546 142.397C130.242 141.438 128.15 140.033 126.391 138.263L88.7586 100.63C86.988 98.8704 85.5827 96.7778 84.624 94.4731C83.6649 92.168 83.1715 89.6964 83.1715 87.2001C83.1715 84.7038 83.6649 82.2322 84.624 79.9271C85.5827 77.6224 86.988 75.5298 88.7586 73.7702L94.0576 68.4485L94.107 68.4181L104.861 57.6681C105.92 56.609 106.76 55.352 107.333 53.9683C107.906 52.5846 108.202 51.1014 108.202 49.6037C108.202 48.106 107.906 46.6227 107.333 45.2391C106.76 43.8554 105.92 42.5983 104.861 41.5393L72.5956 9.25515C70.4232 7.1808 67.535 6.02332 64.5312 6.02332C61.5275 6.02332 58.6393 7.1808 56.4669 9.25515L45.7169 20.0051L45.6903 20.0469C32.8872 32.8747 25.3797 50.05 24.6599 68.1592C23.9401 86.2684 30.0608 103.986 41.8054 117.789V131.036C41.258 131.253 40.7296 131.473 40.2126 131.698L30.1241 121.609C29.3978 120.922 28.4362 120.54 27.4366 120.54C26.437 120.54 25.4754 120.922 24.7491 121.609L8.63173 137.727C7.91911 138.439 7.51876 139.406 7.51876 140.414C7.51876 141.422 7.91911 142.389 8.63173 143.102L18.7203 153.19C18.4922 153.707 18.2755 154.235 18.0589 154.783H3.79272C2.78455 154.783 1.8177 155.183 1.10481 155.896C0.391957 156.609 -0.00854492 157.576 -0.00854492 158.584V181.392C-0.00854492 182.4 0.391957 183.367 1.10481 184.08C1.8177 184.792 2.78455 185.193 3.79272 185.193H18.0589C18.2755 185.74 18.4922 186.269 18.7203 186.782L8.63173 196.874C7.91911 197.587 7.51876 198.554 7.51876 199.562C7.51876 200.57 7.91911 201.536 8.63173 202.249L24.7491 218.367C25.4619 219.079 26.4287 219.48 27.4366 219.48C28.4445 219.48 29.4112 219.079 30.1241 218.367L40.2126 208.278C40.7296 208.502 41.258 208.723 41.8054 208.939V223.206C41.8054 224.214 42.206 225.181 42.9188 225.893C43.6315 226.606 44.5985 227.007 45.6066 227.007H68.4142C69.4223 227.007 70.3894 226.606 71.1021 225.893C71.8148 225.181 72.2155 224.214 72.2155 223.206V208.939C72.7629 208.723 73.2913 208.502 73.8082 208.278L83.8968 218.367C84.6232 219.053 85.5846 219.436 86.5843 219.436C87.584 219.436 88.5454 219.053 89.2718 218.367L105.389 202.249C106.102 201.536 106.502 200.57 106.502 199.562C106.502 198.554 106.102 197.587 105.389 196.874L95.3006 186.782C95.5287 186.269 95.7453 185.74 95.962 185.193H109.206C122.999 196.957 140.719 203.091 158.834 202.371C176.948 201.652 194.127 194.133 206.944 181.312L206.993 181.281L217.743 170.528C218.802 169.469 219.643 168.212 220.215 166.828C220.789 165.444 221.084 163.961 221.084 162.463C221.084 160.966 220.789 159.482 220.215 158.099C219.643 156.715 218.802 155.458 217.743 154.399L185.493 122.145ZM61.8495 14.6263C62.5736 13.9353 63.5361 13.5497 64.5369 13.5497C65.5378 13.5497 66.5003 13.9353 67.2244 14.6263L99.4782 46.8839C100.19 47.5966 100.589 48.5625 100.589 49.5695C100.589 50.5764 100.19 51.5423 99.4782 52.2551L91.4195 60.3099L53.787 22.6774L61.8495 14.6263ZM106.427 177.59H93.2745C92.4698 177.59 91.6856 177.846 91.0356 178.32C90.3852 178.794 89.902 179.462 89.6557 180.228C89.0658 182.13 88.2956 183.97 87.3559 185.725C86.9614 186.446 86.8112 187.275 86.9275 188.089C87.0442 188.902 87.4213 189.656 88.0022 190.237L97.3229 199.562L86.5843 210.304L77.2598 200.98C76.6782 200.398 75.9236 200.02 75.1094 199.904C74.2952 199.787 73.4654 199.938 72.7439 200.333C70.9904 201.276 69.1494 202.046 67.2473 202.633C66.4817 202.88 65.8142 203.363 65.3409 204.014C64.8677 204.664 64.6126 205.448 64.613 206.252V219.404H49.4079V206.252C49.4083 205.448 49.1532 204.664 48.68 204.014C48.2067 203.363 47.5392 202.88 46.7736 202.633C44.8715 202.046 43.0305 201.276 41.277 200.333C40.5555 199.938 39.7257 199.787 38.9115 199.904C38.0972 200.02 37.3427 200.398 36.7611 200.98L27.4366 210.304L16.717 199.562L26.0377 190.237C26.6187 189.656 26.9956 188.902 27.1122 188.089C27.2287 187.275 27.0784 186.446 26.6839 185.725C25.7507 183.97 24.9869 182.129 24.4032 180.228C24.155 179.456 23.6661 178.783 23.0082 178.309C22.3502 177.834 21.5576 177.582 20.7464 177.59H7.59399V162.385H20.7464C21.5512 162.385 22.3352 162.13 22.9855 161.656C23.6358 161.182 24.1189 160.514 24.3652 159.747C24.9489 157.847 25.7126 156.006 26.6459 154.251C27.0404 153.53 27.1907 152.7 27.0741 151.887C26.9576 151.074 26.5807 150.32 25.9997 149.739L16.717 140.414L27.4366 129.672L36.7611 138.996C37.3427 139.578 38.0972 139.956 38.9115 140.072C39.7257 140.189 40.5555 140.038 41.277 139.642C43.0305 138.7 44.8715 137.93 46.7736 137.343C47.5392 137.096 48.2067 136.612 48.68 135.962C49.1532 135.312 49.4083 134.528 49.4079 133.724V120.571H64.613V133.724C64.6126 134.528 64.8677 135.312 65.3409 135.962C65.8142 136.612 66.4817 137.096 67.2473 137.343C69.1494 137.93 70.9904 138.7 72.7439 139.642C73.4654 140.038 74.2952 140.189 75.1094 140.072C75.9236 139.956 76.6782 139.578 77.2598 138.996L86.5843 129.672L97.3229 140.414L88.0022 149.739C87.4213 150.32 87.0442 151.074 86.9275 151.887C86.8112 152.7 86.9614 153.53 87.3559 154.251C88.2956 156.005 89.0658 157.846 89.6557 159.747C89.902 160.514 90.3852 161.182 91.0356 161.656C91.6856 162.13 92.4698 162.385 93.2745 162.385H106.427V177.59ZM114.029 179.328V158.584C114.029 157.576 113.629 156.609 112.916 155.896C112.203 155.183 111.236 154.783 110.228 154.783H95.962C95.7453 154.235 95.5287 153.707 95.3006 153.19L105.389 143.102C106.102 142.389 106.502 141.422 106.502 140.414C106.502 139.406 106.102 138.439 105.389 137.727L89.2718 121.609C88.559 120.896 87.5924 120.496 86.5843 120.496C85.5762 120.496 84.6095 120.896 83.8968 121.609L73.8082 131.698C73.2913 131.473 72.7629 131.253 72.2155 131.036V116.77C72.2155 115.762 71.8148 114.795 71.1021 114.082C70.3894 113.37 69.4223 112.969 68.4142 112.969H47.6745C37.5483 101.115 32.0525 85.9989 32.2019 70.4095C32.3516 54.8205 38.1364 39.812 48.488 28.155L86.0331 65.7001L83.3722 68.3838C80.8934 70.8505 78.9263 73.7824 77.584 77.0116C76.2418 80.2407 75.5507 83.7033 75.5507 87.2001C75.5507 90.6969 76.2418 94.1595 77.584 97.3886C78.9263 100.618 80.8934 103.55 83.3722 106.016L121.005 143.649C123.469 146.126 126.398 148.093 129.624 149.435C132.85 150.777 136.309 151.469 139.804 151.471C143.298 151.473 146.758 150.785 149.986 149.445C153.213 148.106 156.144 146.143 158.611 143.668L161.313 140.984L198.862 178.529C187.202 188.882 172.188 194.667 156.595 194.814C141.002 194.96 125.883 189.459 114.029 179.328ZM212.368 165.153L204.313 173.208L166.681 135.575L174.739 127.524C175.452 126.811 176.419 126.411 177.427 126.411C178.435 126.411 179.402 126.811 180.114 127.524L212.368 159.778C213.081 160.49 213.481 161.457 213.481 162.465C213.481 163.473 213.081 164.44 212.368 165.153Z" fill="black"/>
<path d="M57.0103 150.982C53.2512 150.982 49.5765 152.097 46.4511 154.185C43.3253 156.274 40.8891 159.242 39.4507 162.715C38.0123 166.188 37.6356 170.01 38.3692 173.697C39.1025 177.384 40.9127 180.77 43.5709 183.428C46.2287 186.086 49.6153 187.896 53.3025 188.63C56.9894 189.363 60.8108 188.987 64.2836 187.548C67.7568 186.11 70.7249 183.674 72.8136 180.548C74.9021 177.422 76.0166 173.748 76.0166 169.989C76.0105 164.95 74.0061 160.119 70.4432 156.556C66.8799 152.993 62.0492 150.988 57.0103 150.982ZM57.0103 181.392C54.755 181.392 52.5499 180.723 50.6747 179.471C48.7991 178.218 47.3376 176.436 46.4747 174.352C45.6114 172.269 45.3856 169.976 45.8254 167.764C46.2656 165.552 47.3516 163.52 48.9466 161.925C50.5413 160.33 52.5734 159.244 54.7854 158.804C56.9977 158.364 59.2906 158.59 61.3745 159.453C63.458 160.316 65.2392 161.778 66.4921 163.653C67.7454 165.528 68.4141 167.733 68.4141 169.989C68.4141 173.013 67.2125 175.914 65.0739 178.052C62.9353 180.191 60.0349 181.392 57.0103 181.392Z" fill="black"/>
<path d="M129.751 0.0286092C128.752 -0.108502 127.739 0.156902 126.936 0.766397C126.133 1.37589 125.604 2.27961 125.467 3.27869C125.33 4.27778 125.595 5.2904 126.205 6.09383C126.814 6.89723 127.718 7.42561 128.717 7.56272C151.644 10.7682 172.901 21.3575 189.27 37.7265C205.639 54.0959 216.229 75.3534 219.434 98.2799C219.559 99.1896 220.009 100.023 220.701 100.627C221.392 101.23 222.279 101.563 223.197 101.564C223.37 101.564 223.543 101.553 223.714 101.53C224.209 101.462 224.686 101.298 225.117 101.046C225.548 100.794 225.925 100.459 226.227 100.061C226.529 99.6636 226.749 99.2101 226.876 98.727C227.002 98.2438 227.033 97.7405 226.964 97.246C223.529 72.6773 212.181 49.8974 194.64 32.3553C177.099 14.8134 154.319 3.46503 129.751 0.0286092Z" fill="black"/>
<path d="M128.578 30.6527C145.456 33.6416 161.009 41.7448 173.13 53.8655C185.251 65.9866 193.354 81.5391 196.343 98.4179C196.497 99.2994 196.957 100.098 197.641 100.674C198.326 101.249 199.192 101.565 200.087 101.565C200.307 101.565 200.528 101.546 200.745 101.508C201.737 101.335 202.621 100.774 203.201 99.9494C203.78 99.1245 204.008 98.1031 203.835 97.1102C200.577 78.6908 191.736 61.7181 178.51 48.4916C165.284 35.2648 148.312 26.4229 129.893 23.1642C129.401 23.0778 128.897 23.0892 128.41 23.1975C127.923 23.3059 127.462 23.5092 127.053 23.7958C126.644 24.0825 126.296 24.4468 126.028 24.868C125.76 25.2893 125.577 25.7591 125.491 26.2508C125.405 26.7425 125.416 27.2464 125.524 27.7337C125.633 28.2211 125.836 28.6823 126.123 29.091C126.409 29.4998 126.773 29.848 127.195 30.1159C127.616 30.3839 128.086 30.5664 128.578 30.6527Z" fill="black"/>
<path d="M128.345 53.867C139.181 56.548 149.079 62.1363 156.971 70.0296C164.864 77.9229 170.452 87.8214 173.132 98.6573C173.236 99.1557 173.439 99.6278 173.73 100.046C174.02 100.464 174.391 100.82 174.822 101.092C175.252 101.364 175.733 101.547 176.235 101.63C176.737 101.712 177.251 101.693 177.746 101.573C178.241 101.454 178.707 101.236 179.116 100.933C179.525 100.629 179.869 100.247 180.127 99.8087C180.386 99.3701 180.553 98.8839 180.621 98.3795C180.687 97.8747 180.652 97.3615 180.518 96.8707C177.504 84.6778 171.217 73.5397 162.336 64.6584C153.455 55.7775 142.317 49.491 130.124 46.4774C129.635 46.3485 129.124 46.3185 128.623 46.3892C128.122 46.4599 127.64 46.6302 127.206 46.8898C126.771 47.149 126.393 47.4927 126.093 47.9005C125.793 48.308 125.578 48.7714 125.46 49.2633C125.341 49.7556 125.322 50.2661 125.404 50.7656C125.485 51.2651 125.666 51.7433 125.934 52.172C126.203 52.6008 126.555 52.9714 126.969 53.2626C127.383 53.5538 127.851 53.7591 128.345 53.867Z" fill="black"/>
<path d="M136.837 105.367C139.844 105.367 142.784 104.475 145.284 102.805C147.785 101.134 149.734 98.7589 150.884 95.9805C152.035 93.2022 152.336 90.1452 151.749 87.1954C151.163 84.246 149.715 81.5369 147.588 79.4104C145.462 77.284 142.753 75.8357 139.803 75.2492C136.853 74.6623 133.796 74.9633 131.018 76.1143C128.24 77.265 125.865 79.2139 124.194 81.7144C122.523 84.2148 121.632 87.1547 121.632 90.1619C121.632 94.1947 123.234 98.0621 126.085 100.913C128.937 103.765 132.804 105.367 136.837 105.367ZM136.837 82.5594C138.34 82.5594 139.81 83.0053 141.06 83.8408C142.311 84.6759 143.285 85.8635 143.861 87.2524C144.436 88.6418 144.586 90.1703 144.293 91.6452C144 93.1197 143.276 94.4745 142.212 95.5377C141.149 96.6009 139.794 97.325 138.32 97.6185C136.845 97.9116 135.317 97.761 133.927 97.1859C132.538 96.6104 131.351 95.6357 130.516 94.3855C129.68 93.1353 129.234 91.6657 129.234 90.1619C129.234 88.1457 130.035 86.212 131.461 84.7862C132.887 83.3603 134.821 82.5594 136.837 82.5594Z" fill="black"/>
</svg>
