<svg width="173" height="227" viewBox="0 0 173 227" fill="none" xmlns="http://www.w3.org/2000/svg">
<path d="M171.836 82.8567L157.05 66.7089L161.676 45.4147C162.106 43.5261 160.961 41.6374 159.101 41.0236L138.162 34.3191L131.437 13.5914C130.817 11.75 128.909 10.664 127.001 11.0417L105.49 15.6217L89.178 0.984814C87.7471 -0.337223 85.5053 -0.337223 84.0744 0.984814L67.7623 15.6217L46.2513 11.0417C44.3434 10.6168 42.4356 11.75 41.8155 13.5914L35.0427 34.3191L14.0563 41.0236C12.1962 41.6374 11.0992 43.5261 11.4808 45.4147L16.1072 66.7089L1.32145 82.8567C-0.0140498 84.2731 -0.0140498 86.4923 1.32145 87.9087L16.1072 104.056L11.4808 125.351C11.0515 127.239 12.1962 129.128 14.0563 129.742L34.995 136.446L35.8535 139.138L10.9561 207.459C10.3837 208.97 10.8607 210.669 12.1485 211.661C13.3886 212.652 15.1533 212.794 16.5365 211.944L41.9586 196.552L51.5456 224.456C52.0702 225.967 53.5011 227.006 55.1228 227.006H55.1705C56.7922 227.006 58.2231 226.014 58.7477 224.504L80.068 166.145L84.0744 169.733C84.7899 170.394 85.6961 170.725 86.6501 170.725C87.604 170.725 88.4625 170.394 89.2257 169.733L93.2321 166.145L114.552 224.504C115.077 226.014 116.556 227.006 118.13 227.006H118.177C119.799 227.006 121.23 225.967 121.755 224.456L131.341 196.552L156.764 211.944C158.147 212.794 159.912 212.652 161.152 211.661C162.392 210.669 162.869 208.97 162.344 207.459L137.399 139.185L138.257 136.494L159.196 129.789C161.056 129.175 162.153 127.287 161.772 125.398L157.145 104.104L171.931 87.956C173.171 86.4923 173.171 84.3204 171.836 82.8567ZM55.2182 211.85L47.5868 189.658C47.2052 188.572 46.3467 187.723 45.2497 187.298C44.1527 186.873 42.9602 187.014 41.9586 187.628L21.7354 199.857L39.6215 150.894L41.6725 157.174C42.2925 159.015 44.2004 160.101 46.1082 159.724L67.6192 155.144L73.8197 160.715L55.2182 211.85ZM151.374 199.904L131.151 187.675C130.149 187.062 128.957 186.967 127.86 187.345C126.763 187.723 125.904 188.572 125.523 189.706L117.891 211.897L99.1942 160.762L105.395 155.191L126.906 159.771C128.814 160.196 130.721 159.063 131.341 157.221L133.392 150.942L151.374 199.904ZM150.134 100.468C149.323 101.365 148.989 102.593 149.228 103.773L153.52 123.651L134.012 129.883C132.868 130.261 131.914 131.158 131.532 132.339L129.672 138.005L125.236 151.65L105.156 147.4C103.964 147.164 102.724 147.495 101.817 148.298L86.6024 161.896L71.3872 148.25C70.6718 147.637 69.7656 147.259 68.8116 147.259C68.5255 147.259 68.287 147.306 68.0008 147.353L47.9207 151.603L43.4849 137.957L41.6248 132.291C41.2432 131.158 40.337 130.214 39.1445 129.836L19.6845 123.651L23.9771 103.773C24.2156 102.593 23.8817 101.365 23.0709 100.468L9.33442 85.4063L23.1186 70.3445C23.9294 69.4474 24.2633 68.2198 24.0248 67.0394L19.7322 47.1617L39.2399 40.9292C40.3847 40.5515 41.3386 39.6544 41.7201 38.474L47.9684 19.1628L68.0485 23.4122C69.2409 23.6483 70.481 23.3178 71.3872 22.5151L86.6024 8.91704L101.817 22.5624C102.724 23.365 103.964 23.6955 105.156 23.4595L125.236 19.21L131.532 38.5212C131.914 39.6544 132.82 40.5987 134.012 40.9764L153.52 47.2089L149.228 67.0867C148.989 68.267 149.323 69.4946 150.134 70.3917L163.87 85.4063L150.134 100.468Z" fill="black"/>
<path d="M86.6027 30.6361C55.0278 30.6361 29.3672 56.0381 29.3672 87.2949C29.3672 118.552 55.0278 143.954 86.6027 143.954C118.178 143.954 143.838 118.552 143.838 87.2949C143.838 56.0381 118.178 30.6361 86.6027 30.6361ZM86.6027 136.399C59.2728 136.399 36.9986 114.349 36.9986 87.2949C36.9986 60.2403 59.2728 38.1906 86.6027 38.1906C113.933 38.1906 136.207 60.2403 136.207 87.2949C136.207 114.349 113.933 136.399 86.6027 136.399Z" fill="black"/>
<path d="M107.924 59.2488L75.1562 91.3554L65.2831 81.6762C62.3259 78.7961 57.5086 78.7961 54.5037 81.6762L48.4463 87.5782C47.0154 88.9946 46.2046 90.8833 46.2046 92.9135C46.2046 94.9438 47.0154 96.8324 48.4463 98.2489L69.7666 119.118C71.2451 120.582 73.2007 121.29 75.1562 121.29C77.1118 121.29 79.0673 120.582 80.5459 119.118L124.76 75.8687C126.191 74.4522 127.002 72.5636 127.002 70.5333C127.002 68.5031 126.191 66.6144 124.76 65.198L118.703 59.296C115.746 56.3686 110.881 56.3686 107.924 59.2488ZM83.9323 105.19L75.1562 113.736L53.8837 92.9135L59.9411 87.0588L72.4852 99.3349C73.9638 100.799 76.3486 100.799 77.8272 99.3349L113.313 64.6314L110.642 61.9401L119.371 70.4861L83.9323 105.19Z" fill="black"/>
</svg>
